<?xml version="1.0" encoding="UTF-8" standalone="no"?><svg xmlns="http://www.w3.org/2000/svg" xmlns:xlink="http://www.w3.org/1999/xlink" contentScriptType="application/ecmascript" contentStyleType="text/css" height="523px" preserveAspectRatio="none" style="width:593px;height:523px;" version="1.1" viewBox="0 0 593 523" width="593px" zoomAndPan="magnify"><defs><filter height="300%" id="fpcy530fmphah" width="300%" x="-1" y="-1"><feGaussianBlur result="blurOut" stdDeviation="2.0"/><feColorMatrix in="blurOut" result="blurOut2" type="matrix" values="0 0 0 0 0 0 0 0 0 0 0 0 0 0 0 0 0 0 .4 0"/><feOffset dx="4.0" dy="4.0" in="blurOut2" result="blurOut3"/><feBlend in="SourceGraphic" in2="blurOut3" mode="normal"/></filter></defs><g><!--cluster QAManager--><rect fill="#FFFFFF" filter="url(#fpcy530fmphah)" height="251" style="stroke: #000000; stroke-width: 1.5;" width="193" x="14" y="261"/><text fill="#000000" font-family="sans-serif" font-size="14" font-weight="bold" lengthAdjust="spacingAndGlyphs" textLength="91" x="65" y="275.9951">QAManager</text><!--cluster Gnome::Gtk3--><rect fill="#FFFFFF" filter="url(#fpcy530fmphah)" height="67" style="stroke: #000000; stroke-width: 1.5;" width="194" x="242" y="16"/><text fill="#000000" font-family="sans-serif" font-size="14" font-weight="bold" lengthAdjust="spacingAndGlyphs" textLength="105" x="286.5" y="30.9951">Gnome::Gtk3</text><!--cluster QAManager::Gui--><rect fill="#FFFFFF" filter="url(#fpcy530fmphah)" height="67" style="stroke: #000000; stroke-width: 1.5;" width="325" x="140" y="169"/><text fill="#000000" font-family="sans-serif" font-size="14" font-weight="bold" lengthAdjust="spacingAndGlyphs" textLength="129" x="238" y="183.9951">QAManager::Gui</text><!--cluster QAManager::Gui::Part--><rect fill="#FFFFFF" filter="url(#fpcy530fmphah)" height="251" style="stroke: #000000; stroke-width: 1.5;" width="202" x="220" y="261"/><text fill="#000000" font-family="sans-serif" font-size="14" font-weight="bold" lengthAdjust="spacingAndGlyphs" textLength="173" x="234.5" y="275.9951">QAManager::Gui::Part</text><!--class QAManager::Category--><rect fill="#FEFECE" filter="url(#fpcy530fmphah)" height="32" id="QAManager::Category" style="stroke: #A80036; stroke-width: 1.5;" width="88" x="22" y="288"/><ellipse cx="37" cy="304" fill="#ADD1B2" rx="11" ry="11" style="stroke: #A80036; stroke-width: 1.0;"/><path d="M39.9688,309.6406 Q39.3906,309.9375 38.75,310.0781 Q38.1094,310.2344 37.4063,310.2344 Q34.9063,310.2344 33.5781,308.5938 Q32.2656,306.9375 32.2656,303.8125 Q32.2656,300.6875 33.5781,299.0313 Q34.9063,297.375 37.4063,297.375 Q38.1094,297.375 38.75,297.5313 Q39.4063,297.6875 39.9688,297.9844 L39.9688,300.7031 Q39.3438,300.125 38.75,299.8594 Q38.1563,299.5781 37.5313,299.5781 Q36.1875,299.5781 35.5,300.6563 Q34.8125,301.7188 34.8125,303.8125 Q34.8125,305.9063 35.5,306.9844 Q36.1875,308.0469 37.5313,308.0469 Q38.1563,308.0469 38.75,307.7813 Q39.3438,307.5 39.9688,306.9219 L39.9688,309.6406 Z "/><text fill="#000000" font-family="sans-serif" font-size="12" lengthAdjust="spacingAndGlyphs" textLength="56" x="51" y="308.1807">Category</text><!--class QAManager::Set--><rect fill="#FEFECE" filter="url(#fpcy530fmphah)" height="32" id="QAManager::Set" style="stroke: #A80036; stroke-width: 1.5;" width="53" x="145.5" y="288"/><ellipse cx="160.5" cy="304" fill="#ADD1B2" rx="11" ry="11" style="stroke: #A80036; stroke-width: 1.0;"/><path d="M163.4688,309.6406 Q162.8906,309.9375 162.25,310.0781 Q161.6094,310.2344 160.9063,310.2344 Q158.4063,310.2344 157.0781,308.5938 Q155.7656,306.9375 155.7656,303.8125 Q155.7656,300.6875 157.0781,299.0313 Q158.4063,297.375 160.9063,297.375 Q161.6094,297.375 162.25,297.5313 Q162.9063,297.6875 163.4688,297.9844 L163.4688,300.7031 Q162.8438,300.125 162.25,299.8594 Q161.6563,299.5781 161.0313,299.5781 Q159.6875,299.5781 159,300.6563 Q158.3125,301.7188 158.3125,303.8125 Q158.3125,305.9063 159,306.9844 Q159.6875,308.0469 161.0313,308.0469 Q161.6563,308.0469 162.25,307.7813 Q162.8438,307.5 163.4688,306.9219 L163.4688,309.6406 Z "/><text fill="#000000" font-family="sans-serif" font-size="12" lengthAdjust="spacingAndGlyphs" textLength="21" x="174.5" y="308.1807">Set</text><!--class QAManager::KV--><rect fill="#FEFECE" filter="url(#fpcy530fmphah)" height="32" id="QAManager::KV" style="stroke: #A80036; stroke-width: 1.5;" width="47" x="139.5" y="380"/><ellipse cx="154.5" cy="396" fill="#ADD1B2" rx="11" ry="11" style="stroke: #A80036; stroke-width: 1.0;"/><path d="M157.4688,401.6406 Q156.8906,401.9375 156.25,402.0781 Q155.6094,402.2344 154.9063,402.2344 Q152.4063,402.2344 151.0781,400.5938 Q149.7656,398.9375 149.7656,395.8125 Q149.7656,392.6875 151.0781,391.0313 Q152.4063,389.375 154.9063,389.375 Q155.6094,389.375 156.25,389.5313 Q156.9063,389.6875 157.4688,389.9844 L157.4688,392.7031 Q156.8438,392.125 156.25,391.8594 Q155.6563,391.5781 155.0313,391.5781 Q153.6875,391.5781 153,392.6563 Q152.3125,393.7188 152.3125,395.8125 Q152.3125,397.9063 153,398.9844 Q153.6875,400.0469 155.0313,400.0469 Q155.6563,400.0469 156.25,399.7813 Q156.8438,399.5 157.4688,398.9219 L157.4688,401.6406 Z "/><text fill="#000000" font-family="sans-serif" font-size="12" lengthAdjust="spacingAndGlyphs" textLength="15" x="168.5" y="400.1807">KV</text><!--class QAManager::QATypes--><rect fill="#FEFECE" filter="url(#fpcy530fmphah)" height="32" id="QAManager::QATypes" style="stroke: #A80036; stroke-width: 1.5;" width="85" x="113.5" y="472"/><ellipse cx="128.5" cy="488" fill="#ADD1B2" rx="11" ry="11" style="stroke: #A80036; stroke-width: 1.0;"/><path d="M131.4688,493.6406 Q130.8906,493.9375 130.25,494.0781 Q129.6094,494.2344 128.9063,494.2344 Q126.4063,494.2344 125.0781,492.5938 Q123.7656,490.9375 123.7656,487.8125 Q123.7656,484.6875 125.0781,483.0313 Q126.4063,481.375 128.9063,481.375 Q129.6094,481.375 130.25,481.5313 Q130.9063,481.6875 131.4688,481.9844 L131.4688,484.7031 Q130.8438,484.125 130.25,483.8594 Q129.6563,483.5781 129.0313,483.5781 Q127.6875,483.5781 127,484.6563 Q126.3125,485.7188 126.3125,487.8125 Q126.3125,489.9063 127,490.9844 Q127.6875,492.0469 129.0313,492.0469 Q129.6563,492.0469 130.25,491.7813 Q130.8438,491.5 131.4688,490.9219 L131.4688,493.6406 Z "/><text fill="#000000" font-family="sans-serif" font-size="12" lengthAdjust="spacingAndGlyphs" textLength="53" x="142.5" y="492.1807">QATypes</text><!--class Gnome::Gtk3::Dialog--><rect fill="#FEFECE" filter="url(#fpcy530fmphah)" height="32" id="Gnome::Gtk3::Dialog" style="stroke: #A80036; stroke-width: 1.5;" width="71" x="250.5" y="43"/><ellipse cx="265.5" cy="59" fill="#ADD1B2" rx="11" ry="11" style="stroke: #A80036; stroke-width: 1.0;"/><path d="M268.4688,64.6406 Q267.8906,64.9375 267.25,65.0781 Q266.6094,65.2344 265.9063,65.2344 Q263.4063,65.2344 262.0781,63.5938 Q260.7656,61.9375 260.7656,58.8125 Q260.7656,55.6875 262.0781,54.0313 Q263.4063,52.375 265.9063,52.375 Q266.6094,52.375 267.25,52.5313 Q267.9063,52.6875 268.4688,52.9844 L268.4688,55.7031 Q267.8438,55.125 267.25,54.8594 Q266.6563,54.5781 266.0313,54.5781 Q264.6875,54.5781 264,55.6563 Q263.3125,56.7188 263.3125,58.8125 Q263.3125,60.9063 264,61.9844 Q264.6875,63.0469 266.0313,63.0469 Q266.6563,63.0469 267.25,62.7813 Q267.8438,62.5 268.4688,61.9219 L268.4688,64.6406 Z "/><text fill="#000000" font-family="sans-serif" font-size="12" lengthAdjust="spacingAndGlyphs" textLength="39" x="279.5" y="63.1807">Dialog</text><!--class Gnome::Gtk3::Frame--><rect fill="#FEFECE" filter="url(#fpcy530fmphah)" height="32" id="Gnome::Gtk3::Frame" style="stroke: #A80036; stroke-width: 1.5;" width="71" x="356.5" y="43"/><ellipse cx="371.5" cy="59" fill="#ADD1B2" rx="11" ry="11" style="stroke: #A80036; stroke-width: 1.0;"/><path d="M374.4688,64.6406 Q373.8906,64.9375 373.25,65.0781 Q372.6094,65.2344 371.9063,65.2344 Q369.4063,65.2344 368.0781,63.5938 Q366.7656,61.9375 366.7656,58.8125 Q366.7656,55.6875 368.0781,54.0313 Q369.4063,52.375 371.9063,52.375 Q372.6094,52.375 373.25,52.5313 Q373.9063,52.6875 374.4688,52.9844 L374.4688,55.7031 Q373.8438,55.125 373.25,54.8594 Q372.6563,54.5781 372.0313,54.5781 Q370.6875,54.5781 370,55.6563 Q369.3125,56.7188 369.3125,58.8125 Q369.3125,60.9063 370,61.9844 Q370.6875,63.0469 372.0313,63.0469 Q372.6563,63.0469 373.25,62.7813 Q373.8438,62.5 374.4688,61.9219 L374.4688,64.6406 Z "/><text fill="#000000" font-family="sans-serif" font-size="12" lengthAdjust="spacingAndGlyphs" textLength="39" x="385.5" y="63.1807">Frame</text><!--class QAManager::Gui::Dialog--><rect fill="#FEFECE" filter="url(#fpcy530fmphah)" height="32" id="QAManager::Gui::Dialog" style="stroke: #A80036; stroke-width: 1.5;" width="71" x="148.5" y="196"/><ellipse cx="163.5" cy="212" fill="#ADD1B2" rx="11" ry="11" style="stroke: #A80036; stroke-width: 1.0;"/><path d="M166.4688,217.6406 Q165.8906,217.9375 165.25,218.0781 Q164.6094,218.2344 163.9063,218.2344 Q161.4063,218.2344 160.0781,216.5938 Q158.7656,214.9375 158.7656,211.8125 Q158.7656,208.6875 160.0781,207.0313 Q161.4063,205.375 163.9063,205.375 Q164.6094,205.375 165.25,205.5313 Q165.9063,205.6875 166.4688,205.9844 L166.4688,208.7031 Q165.8438,208.125 165.25,207.8594 Q164.6563,207.5781 164.0313,207.5781 Q162.6875,207.5781 162,208.6563 Q161.3125,209.7188 161.3125,211.8125 Q161.3125,213.9063 162,214.9844 Q162.6875,216.0469 164.0313,216.0469 Q164.6563,216.0469 165.25,215.7813 Q165.8438,215.5 166.4688,214.9219 L166.4688,217.6406 Z "/><text fill="#000000" font-family="sans-serif" font-size="12" lengthAdjust="spacingAndGlyphs" textLength="39" x="177.5" y="216.1807">Dialog</text><!--class QAManager::Gui::Frame--><rect fill="#FEFECE" filter="url(#fpcy530fmphah)" height="32" id="QAManager::Gui::Frame" style="stroke: #A80036; stroke-width: 1.5;" width="71" x="254.5" y="196"/><ellipse cx="269.5" cy="212" fill="#ADD1B2" rx="11" ry="11" style="stroke: #A80036; stroke-width: 1.0;"/><path d="M272.4688,217.6406 Q271.8906,217.9375 271.25,218.0781 Q270.6094,218.2344 269.9063,218.2344 Q267.4063,218.2344 266.0781,216.5938 Q264.7656,214.9375 264.7656,211.8125 Q264.7656,208.6875 266.0781,207.0313 Q267.4063,205.375 269.9063,205.375 Q270.6094,205.375 271.25,205.5313 Q271.9063,205.6875 272.4688,205.9844 L272.4688,208.7031 Q271.8438,208.125 271.25,207.8594 Q270.6563,207.5781 270.0313,207.5781 Q268.6875,207.5781 268,208.6563 Q267.3125,209.7188 267.3125,211.8125 Q267.3125,213.9063 268,214.9844 Q268.6875,216.0469 270.0313,216.0469 Q270.6563,216.0469 271.25,215.7813 Q271.8438,215.5 272.4688,214.9219 L272.4688,217.6406 Z "/><text fill="#000000" font-family="sans-serif" font-size="12" lengthAdjust="spacingAndGlyphs" textLength="39" x="283.5" y="216.1807">Frame</text><!--class QAManager::Gui::Value--><rect fill="#FEFECE" filter="url(#fpcy530fmphah)" height="32" id="QAManager::Gui::Value" style="stroke: #A80036; stroke-width: 1.5;" width="96" x="361" y="196"/><ellipse cx="376" cy="212" fill="#FFFFFF" rx="11" ry="11" style="stroke: #A80036; stroke-width: 1.0;"/><path d="M377.2031,212.1406 Q377.5625,212.2188 377.8281,212.5 Q378.1094,212.7656 378.5,213.5469 L380.7344,218 L378.0469,218 L376.5469,214.875 Q376.4844,214.7344 376.375,214.5 Q375.7188,213.1094 374.8281,213.1094 L374.0469,213.1094 L374.0469,218 L371.6094,218 L371.6094,205.6094 L375.1406,205.6094 Q377.5313,205.6094 378.5625,206.4531 Q379.6094,207.2969 379.6094,209.2031 Q379.6094,210.4844 378.9844,211.25 Q378.375,212 377.2031,212.1406 Z M374.0469,207.6719 L374.0469,211.0469 L375.2031,211.0469 Q376.2188,211.0469 376.6406,210.6563 Q377.0781,210.25 377.0781,209.3438 Q377.0781,208.4531 376.6406,208.0625 Q376.2188,207.6719 375.2031,207.6719 L374.0469,207.6719 Z "/><text fill="#000000" font-family="sans-serif" font-size="12" lengthAdjust="spacingAndGlyphs" textLength="64" x="390" y="216.1807">ValueRepr</text><!--class QAManager::Gui::Part::Set--><rect fill="#FEFECE" filter="url(#fpcy530fmphah)" height="32" id="QAManager::Gui::Part::Set" style="stroke: #A80036; stroke-width: 1.5;" width="53" x="233.5" y="288"/><ellipse cx="248.5" cy="304" fill="#ADD1B2" rx="11" ry="11" style="stroke: #A80036; stroke-width: 1.0;"/><path d="M251.4688,309.6406 Q250.8906,309.9375 250.25,310.0781 Q249.6094,310.2344 248.9063,310.2344 Q246.4063,310.2344 245.0781,308.5938 Q243.7656,306.9375 243.7656,303.8125 Q243.7656,300.6875 245.0781,299.0313 Q246.4063,297.375 248.9063,297.375 Q249.6094,297.375 250.25,297.5313 Q250.9063,297.6875 251.4688,297.9844 L251.4688,300.7031 Q250.8438,300.125 250.25,299.8594 Q249.6563,299.5781 249.0313,299.5781 Q247.6875,299.5781 247,300.6563 Q246.3125,301.7188 246.3125,303.8125 Q246.3125,305.9063 247,306.9844 Q247.6875,308.0469 249.0313,308.0469 Q249.6563,308.0469 250.25,307.7813 Q250.8438,307.5 251.4688,306.9219 L251.4688,309.6406 Z "/><text fill="#000000" font-family="sans-serif" font-size="12" lengthAdjust="spacingAndGlyphs" textLength="21" x="262.5" y="308.1807">Set</text><!--class QAManager::Gui::Part::KV--><rect fill="#FEFECE" filter="url(#fpcy530fmphah)" height="32" id="QAManager::Gui::Part::KV" style="stroke: #A80036; stroke-width: 1.5;" width="47" x="228.5" y="380"/><ellipse cx="243.5" cy="396" fill="#ADD1B2" rx="11" ry="11" style="stroke: #A80036; stroke-width: 1.0;"/><path d="M246.4688,401.6406 Q245.8906,401.9375 245.25,402.0781 Q244.6094,402.2344 243.9063,402.2344 Q241.4063,402.2344 240.0781,400.5938 Q238.7656,398.9375 238.7656,395.8125 Q238.7656,392.6875 240.0781,391.0313 Q241.4063,389.375 243.9063,389.375 Q244.6094,389.375 245.25,389.5313 Q245.9063,389.6875 246.4688,389.9844 L246.4688,392.7031 Q245.8438,392.125 245.25,391.8594 Q244.6563,391.5781 244.0313,391.5781 Q242.6875,391.5781 242,392.6563 Q241.3125,393.7188 241.3125,395.8125 Q241.3125,397.9063 242,398.9844 Q242.6875,400.0469 244.0313,400.0469 Q244.6563,400.0469 245.25,399.7813 Q245.8438,399.5 246.4688,398.9219 L246.4688,401.6406 Z "/><text fill="#000000" font-family="sans-serif" font-size="12" lengthAdjust="spacingAndGlyphs" textLength="15" x="257.5" y="400.1807">KV</text><!--class QAManager::Gui::Part::GroupFrame--><rect fill="#FEFECE" filter="url(#fpcy530fmphah)" height="32" id="QAManager::Gui::Part::GroupFrame" style="stroke: #A80036; stroke-width: 1.5;" width="109" x="268.5" y="472"/><ellipse cx="283.5" cy="488" fill="#ADD1B2" rx="11" ry="11" style="stroke: #A80036; stroke-width: 1.0;"/><path d="M286.4688,493.6406 Q285.8906,493.9375 285.25,494.0781 Q284.6094,494.2344 283.9063,494.2344 Q281.4063,494.2344 280.0781,492.5938 Q278.7656,490.9375 278.7656,487.8125 Q278.7656,484.6875 280.0781,483.0313 Q281.4063,481.375 283.9063,481.375 Q284.6094,481.375 285.25,481.5313 Q285.9063,481.6875 286.4688,481.9844 L286.4688,484.7031 Q285.8438,484.125 285.25,483.8594 Q284.6563,483.5781 284.0313,483.5781 Q282.6875,483.5781 282,484.6563 Q281.3125,485.7188 281.3125,487.8125 Q281.3125,489.9063 282,490.9844 Q282.6875,492.0469 284.0313,492.0469 Q284.6563,492.0469 285.25,491.7813 Q285.8438,491.5 286.4688,490.9219 L286.4688,493.6406 Z "/><text fill="#000000" font-family="sans-serif" font-size="12" lengthAdjust="spacingAndGlyphs" textLength="77" x="297.5" y="492.1807">GroupFrame</text><!--class QAManager::Gui::Part::EntryFrame--><rect fill="#FEFECE" filter="url(#fpcy530fmphah)" height="32" id="QAManager::Gui::Part::EntryFrame" style="stroke: #A80036; stroke-width: 1.5;" width="103" x="310.5" y="380"/><ellipse cx="325.5" cy="396" fill="#ADD1B2" rx="11" ry="11" style="stroke: #A80036; stroke-width: 1.0;"/><path d="M328.4688,401.6406 Q327.8906,401.9375 327.25,402.0781 Q326.6094,402.2344 325.9063,402.2344 Q323.4063,402.2344 322.0781,400.5938 Q320.7656,398.9375 320.7656,395.8125 Q320.7656,392.6875 322.0781,391.0313 Q323.4063,389.375 325.9063,389.375 Q326.6094,389.375 327.25,389.5313 Q327.9063,389.6875 328.4688,389.9844 L328.4688,392.7031 Q327.8438,392.125 327.25,391.8594 Q326.6563,391.5781 326.0313,391.5781 Q324.6875,391.5781 324,392.6563 Q323.3125,393.7188 323.3125,395.8125 Q323.3125,397.9063 324,398.9844 Q324.6875,400.0469 326.0313,400.0469 Q326.6563,400.0469 327.25,399.7813 Q327.8438,399.5 328.4688,398.9219 L328.4688,401.6406 Z "/><text fill="#000000" font-family="sans-serif" font-size="12" lengthAdjust="spacingAndGlyphs" textLength="71" x="339.5" y="400.1807">EntryFrame</text><!--class QAManager::Gui::Part::Entry--><rect fill="#FEFECE" filter="url(#fpcy530fmphah)" height="32" id="QAManager::Gui::Part::Entry" style="stroke: #A80036; stroke-width: 1.5;" width="64" x="322" y="288"/><ellipse cx="337" cy="304" fill="#ADD1B2" rx="11" ry="11" style="stroke: #A80036; stroke-width: 1.0;"/><path d="M339.9688,309.6406 Q339.3906,309.9375 338.75,310.0781 Q338.1094,310.2344 337.4063,310.2344 Q334.9063,310.2344 333.5781,308.5938 Q332.2656,306.9375 332.2656,303.8125 Q332.2656,300.6875 333.5781,299.0313 Q334.9063,297.375 337.4063,297.375 Q338.1094,297.375 338.75,297.5313 Q339.4063,297.6875 339.9688,297.9844 L339.9688,300.7031 Q339.3438,300.125 338.75,299.8594 Q338.1563,299.5781 337.5313,299.5781 Q336.1875,299.5781 335.5,300.6563 Q334.8125,301.7188 334.8125,303.8125 Q334.8125,305.9063 335.5,306.9844 Q336.1875,308.0469 337.5313,308.0469 Q338.1563,308.0469 338.75,307.7813 Q339.3438,307.5 339.9688,306.9219 L339.9688,309.6406 Z "/><text fill="#000000" font-family="sans-serif" font-size="12" lengthAdjust="spacingAndGlyphs" textLength="32" x="351" y="308.1807">Entry</text><!--link QAManager::Category to QAManager::Set--><path d="M110.3047,304 C120.2923,304 130.2799,304 140.2674,304 " fill="none" id="QAManager::Category-QAManager::Set" style="stroke: #A80036; stroke-width: 1.0;"/><polygon fill="#A80036" points="145.4903,304,136.4903,300,140.4903,304,136.4903,308,145.4903,304" style="stroke: #A80036; stroke-width: 1.0;"/><!--link QAManager::Category to QAManager::KV--><path d="M82.8961,320.0252 C99.3471,335.6281 124.3905,359.3807 142.0893,376.1672 " fill="none" id="QAManager::Category-QAManager::KV" style="stroke: #A80036; stroke-width: 1.0;"/><polygon fill="#A80036" points="145.972,379.8498,142.1946,370.7541,142.3442,376.409,136.6893,376.5586,145.972,379.8498" style="stroke: #A80036; stroke-width: 1.0;"/><!--link QAManager::Set to QAManager::KV--><path d="M170.4323,320.0252 C168.9572,335.1037 166.7376,357.7931 165.108,374.4514 " fill="none" id="QAManager::Set-QAManager::KV" style="stroke: #A80036; stroke-width: 1.0;"/><polygon fill="#A80036" points="164.5799,379.8498,169.4372,371.282,165.0668,374.8736,161.4752,370.5031,164.5799,379.8498" style="stroke: #A80036; stroke-width: 1.0;"/><!--link QAManager::KV to QAManager::QATypes--><path d="M161.7807,412.0252 C160.6334,427.1037 158.907,449.7931 157.6396,466.4514 " fill="none" id="QAManager::KV-QAManager::QATypes" style="stroke: #A80036; stroke-width: 1.0;"/><polygon fill="#A80036" points="157.2288,471.8498,161.9002,463.1793,157.6082,466.8642,153.9233,462.5722,157.2288,471.8498" style="stroke: #A80036; stroke-width: 1.0;"/><!--link Gnome::Gtk3::Dialog to QAManager::Gui::Dialog--><path d="M264.1024,91.8464 C242.8013,123.798 211.3198,171.0203 194.8863,195.6705 " fill="none" id="Gnome::Gtk3::Dialog-QAManager::Gui::Dialog" style="stroke: #A80036; stroke-width: 1.0;"/><polygon fill="none" points="258.3586,87.8426,275.277,75.0845,270.0073,95.6084,258.3586,87.8426" style="stroke: #A80036; stroke-width: 1.0;"/><!--link QAManager::Gui::Dialog to QAManager::Gui::Part::Set--><path d="M210.0406,243.5229 C222.3646,258.4413 236.5573,275.622 246.6585,287.8498 " fill="none" id="QAManager::Gui::Dialog-QAManager::Gui::Part::Set" style="stroke: #A80036; stroke-width: 1.0;"/><polygon fill="none" points="204.5791,247.9026,197.2382,228.0252,215.3726,238.9863,204.5791,247.9026" style="stroke: #A80036; stroke-width: 1.0;"/><!--link QAManager::Gui::Part::Set to QAManager::Set--><path d="M233.2305,304 C223.4608,304 213.6911,304 203.9214,304 " fill="none" id="QAManager::Gui::Part::Set-QAManager::Set" style="stroke: #A80036; stroke-width: 1.0;"/><polygon fill="#A80036" points="198.8125,304,207.8125,308,203.8125,304,207.8125,300,198.8125,304" style="stroke: #A80036; stroke-width: 1.0;"/><!--link QAManager::Gui::Part::Set to QAManager::Gui::Part::KV--><path d="M258.6065,320.0252 C257.2953,335.1037 255.3223,357.7931 253.8738,374.4514 " fill="none" id="QAManager::Gui::Part::Set-QAManager::Gui::Part::KV" style="stroke: #A80036; stroke-width: 1.0;"/><polygon fill="#A80036" points="253.4044,379.8498,258.1693,371.2303,253.8377,374.8686,250.1994,370.537,253.4044,379.8498" style="stroke: #A80036; stroke-width: 1.0;"/><!--link QAManager::Gui::Frame to QAManager::Gui::Part::Set--><path d="M283.1592,232.9785 C277.7259,249.6405 270.2398,272.5979 265.2664,287.8498 " fill="none" id="QAManager::Gui::Frame-QAManager::Gui::Part::Set" style="stroke: #A80036; stroke-width: 1.0;"/><polygon fill="#A80036" points="284.7744,228.0252,278.1812,235.3416,283.2242,232.7788,285.787,237.8219,284.7744,228.0252" style="stroke: #A80036; stroke-width: 1.0;"/><!--link Gnome::Gtk3::Frame to QAManager::Gui::Frame--><path d="M370.1024,91.8464 C348.8013,123.798 317.3198,171.0203 300.8863,195.6705 " fill="none" id="Gnome::Gtk3::Frame-QAManager::Gui::Frame" style="stroke: #A80036; stroke-width: 1.0;"/><polygon fill="none" points="364.3586,87.8426,381.277,75.0845,376.0073,95.6084,364.3586,87.8426" style="stroke: #A80036; stroke-width: 1.0;"/><!--link QAManager::Gui::Part::KV to QAManager::QATypes--><path d="M235.2781,412.0252 C218.9967,427.6281 194.2115,451.3807 176.6951,468.1672 " fill="none" id="QAManager::Gui::Part::KV-QAManager::QATypes" style="stroke: #A80036; stroke-width: 1.0;"/><polygon fill="#A80036" points="172.8524,471.8498,182.1179,468.5106,176.4623,468.3903,176.5827,462.7347,172.8524,471.8498" style="stroke: #A80036; stroke-width: 1.0;"/><!--link QAManager::Gui::Part::KV to QAManager::KV--><path d="M228.2562,396 C216.1183,396 203.9804,396 191.8426,396 " fill="none" id="QAManager::Gui::Part::KV-QAManager::KV" style="stroke: #A80036; stroke-width: 1.0;"/><polygon fill="#A80036" points="186.6406,396,195.6406,400,191.6406,396,195.6406,392,186.6406,396" style="stroke: #A80036; stroke-width: 1.0;"/><!--link QAManager::Set to QAManager::Gui::Part::KV--><path d="M189.4977,324.1224 C204.0405,340.8465 224.4651,364.3349 237.9563,379.8498 " fill="none" id="QAManager::Set-QAManager::Gui::Part::KV" style="stroke: #A80036; stroke-width: 1.0;"/><polygon fill="#A80036" points="185.9349,320.0252,188.8223,329.4413,189.2159,323.7982,194.859,324.1918,185.9349,320.0252" style="stroke: #A80036; stroke-width: 1.0;"/><!--link QAManager::Gui::Part::KV to QAManager::Gui::Part::GroupFrame--><path d="M264.3673,412.0252 C276.3075,427.497 294.4318,450.982 307.3665,467.7425 " fill="none" id="QAManager::Gui::Part::KV-QAManager::Gui::Part::GroupFrame" style="stroke: #A80036; stroke-width: 1.0;"/><polygon fill="#A80036" points="310.5362,471.8498,308.2043,462.281,307.4814,467.8915,301.871,467.1686,310.5362,471.8498" style="stroke: #A80036; stroke-width: 1.0;"/><!--link QAManager::Gui::Part::KV to QAManager::Gui::Part::EntryFrame--><path d="M275.6328,396 C285.4965,396 295.3603,396 305.224,396 " fill="none" id="QAManager::Gui::Part::KV-QAManager::Gui::Part::EntryFrame" style="stroke: #A80036; stroke-width: 1.0;"/><polygon fill="#A80036" points="310.3821,396,301.3821,392,305.3821,396,301.3821,400,310.3821,396" style="stroke: #A80036; stroke-width: 1.0;"/><!--link Gnome::Gtk3::Frame to QAManager::Gui::Part::GroupFrame--><path d="M446.5378,76.7978 C502.3647,98.852 581,142.2893 581,212 C581,212 581,212 581,304 C581,403.0285 453.4487,453.765 377.7152,475.1619 " fill="none" id="Gnome::Gtk3::Frame-QAManager::Gui::Part::GroupFrame" style="stroke: #A80036; stroke-width: 1.0;"/><polygon fill="none" points="443.8674,83.2734,427.5495,69.7558,448.7355,70.147,443.8674,83.2734" style="stroke: #A80036; stroke-width: 1.0;"/><!--link Gnome::Gtk3::Frame to QAManager::Gui::Part::EntryFrame--><path d="M423.1657,89.8627 C441.5648,110.362 463.1309,138.9534 473,169 C482.2924,197.2908 479.7028,206.9864 473,236 C458.9216,296.9394 407.2231,353.3595 379.6295,379.9675 " fill="none" id="Gnome::Gtk3::Frame-QAManager::Gui::Part::EntryFrame" style="stroke: #A80036; stroke-width: 1.0;"/><polygon fill="none" points="418.0334,94.6234,409.3729,75.2844,428.2031,85.0017,418.0334,94.6234" style="stroke: #A80036; stroke-width: 1.0;"/><!--link QAManager::Gui::Part::EntryFrame to QAManager::Gui::Value--><path d="M373.5444,379.7119 C383.341,364.9103 396.7688,342.0752 403,320 C409.5561,296.7737 411.0418,269.6493 410.8956,248.3941 " fill="none" id="QAManager::Gui::Part::EntryFrame-QAManager::Gui::Value" style="stroke: #A80036; stroke-width: 1.0;"/><polygon fill="none" points="403.8895,248.3051,410.2593,228.0956,417.8826,247.8664,403.8895,248.3051" style="stroke: #A80036; stroke-width: 1.0;"/><!--link QAManager::Gui::Part::Entry to QAManager::Gui::Part::EntryFrame--><path d="M357.1656,340.4048 C358.3547,354.0788 359.6467,368.9368 360.5956,379.8498 " fill="none" id="QAManager::Gui::Part::Entry-QAManager::Gui::Part::EntryFrame" style="stroke: #A80036; stroke-width: 1.0;"/><polygon fill="none" points="350.1525,340.5564,355.3935,320.0252,364.0999,339.3436,350.1525,340.5564" style="stroke: #A80036; stroke-width: 1.0;"/><!--
@startuml
skinparam packageStyle rectangle
set namespaceSeparator ::
hide members


QAManager::Category -> QAManager::Set
QAManager::Category - -> QAManager::KV

QAManager::Set - -> QAManager::KV

QAManager::KV - -> QAManager::QATypes

Gnome::Gtk3::Dialog <|- - QAManager::Gui::Dialog
QAManager::Gui::Dialog <|- - QAManager::Gui::Part::Set

QAManager::Gui::Part::Set -> QAManager::Set
QAManager::Gui::Part::Set - -> QAManager::Gui::Part::KV

QAManager::Gui::Frame <- - QAManager::Gui::Part::Set
Gnome::Gtk3::Frame <|- - QAManager::Gui::Frame

QAManager::Gui::Part::KV - -> QAManager::QATypes
QAManager::Gui::Part::KV -> QAManager::KV
QAManager::Set <- - QAManager::Gui::Part::KV
QAManager::Gui::Part::KV - -> QAManager::Gui::Part::GroupFrame
QAManager::Gui::Part::KV -> QAManager::Gui::Part::EntryFrame

Gnome::Gtk3::Frame <|- - - - - QAManager::Gui::Part::GroupFrame
Gnome::Gtk3::Frame <|- - - - - QAManager::Gui::Part::EntryFrame

class QAManager::Gui::Value <<(R,White)>>
QAManager::Gui::Part::EntryFrame -|> QAManager::Gui::Value

QAManager::Gui::Part::Entry <|- - QAManager::Gui::Part::EntryFrame

@enduml

PlantUML version 1.2019.01(Sat Feb 09 16:32:04 CET 2019)
(LGPL source distribution)
Java Runtime: OpenJDK Runtime Environment
JVM: OpenJDK 64-Bit Server VM
Java Version: 1.8.0_265-b01
Operating System: Linux
OS Version: 5.8.6-101.fc31.x86_64
Default Encoding: UTF-8
Language: en
Country: null
--></g></svg>