<?xml version="1.0" encoding="UTF-8" standalone="no"?><svg xmlns="http://www.w3.org/2000/svg" xmlns:xlink="http://www.w3.org/1999/xlink" contentScriptType="application/ecmascript" contentStyleType="text/css" height="339px" preserveAspectRatio="none" style="width:540px;height:339px;" version="1.1" viewBox="0 0 540 339" width="540px" zoomAndPan="magnify"><defs><filter height="300%" id="f1b3y05bme5sas" width="300%" x="-1" y="-1"><feGaussianBlur result="blurOut" stdDeviation="2.0"/><feColorMatrix in="blurOut" result="blurOut2" type="matrix" values="0 0 0 0 0 0 0 0 0 0 0 0 0 0 0 0 0 0 .4 0"/><feOffset dx="4.0" dy="4.0" in="blurOut2" result="blurOut3"/><feBlend in="SourceGraphic" in2="blurOut3" mode="normal"/></filter></defs><g><!--cluster QAManager::App--><rect fill="#FFFFFF" filter="url(#f1b3y05bme5sas)" height="67" style="stroke: #000000; stroke-width: 1.5;" width="301" x="200" y="169"/><text fill="#000000" font-family="sans-serif" font-size="14" font-weight="bold" lengthAdjust="spacingAndGlyphs" textLength="134" x="283.5" y="183.9951">QAManager::App</text><!--cluster QAManager::App::Page--><rect fill="#FFFFFF" filter="url(#f1b3y05bme5sas)" height="67" style="stroke: #000000; stroke-width: 1.5;" width="297" x="14" y="261"/><text fill="#000000" font-family="sans-serif" font-size="14" font-weight="bold" lengthAdjust="spacingAndGlyphs" textLength="185" x="70" y="275.9951">QAManager::App::Page</text><!--cluster Gnome::Gtk3--><rect fill="#FFFFFF" filter="url(#f1b3y05bme5sas)" height="67" style="stroke: #000000; stroke-width: 1.5;" width="301" x="200" y="16"/><text fill="#000000" font-family="sans-serif" font-size="14" font-weight="bold" lengthAdjust="spacingAndGlyphs" textLength="105" x="298" y="30.9951">Gnome::Gtk3</text><!--cluster QAManager::App::Menu--><rect fill="#FFFFFF" filter="url(#f1b3y05bme5sas)" height="67" style="stroke: #000000; stroke-width: 1.5;" width="205" x="324" y="261"/><text fill="#000000" font-family="sans-serif" font-size="14" font-weight="bold" lengthAdjust="spacingAndGlyphs" textLength="189" x="332" y="275.9951">QAManager::App::Menu</text><!--class QAManager::App::Application--><rect fill="#FEFECE" filter="url(#f1b3y05bme5sas)" height="32" id="QAManager::App::Application" style="stroke: #A80036; stroke-width: 1.5;" width="101" x="208.5" y="196"/><ellipse cx="223.5" cy="212" fill="#ADD1B2" rx="11" ry="11" style="stroke: #A80036; stroke-width: 1.0;"/><path d="M226.4688,217.6406 Q225.8906,217.9375 225.25,218.0781 Q224.6094,218.2344 223.9063,218.2344 Q221.4063,218.2344 220.0781,216.5938 Q218.7656,214.9375 218.7656,211.8125 Q218.7656,208.6875 220.0781,207.0313 Q221.4063,205.375 223.9063,205.375 Q224.6094,205.375 225.25,205.5313 Q225.9063,205.6875 226.4688,205.9844 L226.4688,208.7031 Q225.8438,208.125 225.25,207.8594 Q224.6563,207.5781 224.0313,207.5781 Q222.6875,207.5781 222,208.6563 Q221.3125,209.7188 221.3125,211.8125 Q221.3125,213.9063 222,214.9844 Q222.6875,216.0469 224.0313,216.0469 Q224.6563,216.0469 225.25,215.7813 Q225.8438,215.5 226.4688,214.9219 L226.4688,217.6406 Z "/><text fill="#000000" font-family="sans-serif" font-size="12" lengthAdjust="spacingAndGlyphs" textLength="69" x="237.5" y="216.1807">Application</text><!--class QAManager::App::ApplicationWindow--><rect fill="#FEFECE" filter="url(#f1b3y05bme5sas)" height="32" id="QAManager::App::ApplicationWindow" style="stroke: #A80036; stroke-width: 1.5;" width="148" x="345" y="196"/><ellipse cx="360" cy="212" fill="#ADD1B2" rx="11" ry="11" style="stroke: #A80036; stroke-width: 1.0;"/><path d="M362.9688,217.6406 Q362.3906,217.9375 361.75,218.0781 Q361.1094,218.2344 360.4063,218.2344 Q357.9063,218.2344 356.5781,216.5938 Q355.2656,214.9375 355.2656,211.8125 Q355.2656,208.6875 356.5781,207.0313 Q357.9063,205.375 360.4063,205.375 Q361.1094,205.375 361.75,205.5313 Q362.4063,205.6875 362.9688,205.9844 L362.9688,208.7031 Q362.3438,208.125 361.75,207.8594 Q361.1563,207.5781 360.5313,207.5781 Q359.1875,207.5781 358.5,208.6563 Q357.8125,209.7188 357.8125,211.8125 Q357.8125,213.9063 358.5,214.9844 Q359.1875,216.0469 360.5313,216.0469 Q361.1563,216.0469 361.75,215.7813 Q362.3438,215.5 362.9688,214.9219 L362.9688,217.6406 Z "/><text fill="#000000" font-family="sans-serif" font-size="12" lengthAdjust="spacingAndGlyphs" textLength="116" x="374" y="216.1807">ApplicationWindow</text><!--class QAManager::App::Page::Category--><rect fill="#FEFECE" filter="url(#f1b3y05bme5sas)" height="32" id="QAManager::App::Page::Category" style="stroke: #A80036; stroke-width: 1.5;" width="88" x="215" y="288"/><ellipse cx="230" cy="304" fill="#ADD1B2" rx="11" ry="11" style="stroke: #A80036; stroke-width: 1.0;"/><path d="M232.9688,309.6406 Q232.3906,309.9375 231.75,310.0781 Q231.1094,310.2344 230.4063,310.2344 Q227.9063,310.2344 226.5781,308.5938 Q225.2656,306.9375 225.2656,303.8125 Q225.2656,300.6875 226.5781,299.0313 Q227.9063,297.375 230.4063,297.375 Q231.1094,297.375 231.75,297.5313 Q232.4063,297.6875 232.9688,297.9844 L232.9688,300.7031 Q232.3438,300.125 231.75,299.8594 Q231.1563,299.5781 230.5313,299.5781 Q229.1875,299.5781 228.5,300.6563 Q227.8125,301.7188 227.8125,303.8125 Q227.8125,305.9063 228.5,306.9844 Q229.1875,308.0469 230.5313,308.0469 Q231.1563,308.0469 231.75,307.7813 Q232.3438,307.5 232.9688,306.9219 L232.9688,309.6406 Z "/><text fill="#000000" font-family="sans-serif" font-size="12" lengthAdjust="spacingAndGlyphs" textLength="56" x="244" y="308.1807">Category</text><!--class QAManager::App::Page::Sheet--><rect fill="#FEFECE" filter="url(#f1b3y05bme5sas)" height="32" id="QAManager::App::Page::Sheet" style="stroke: #A80036; stroke-width: 1.5;" width="69" x="110.5" y="288"/><ellipse cx="125.5" cy="304" fill="#ADD1B2" rx="11" ry="11" style="stroke: #A80036; stroke-width: 1.0;"/><path d="M128.4688,309.6406 Q127.8906,309.9375 127.25,310.0781 Q126.6094,310.2344 125.9063,310.2344 Q123.4063,310.2344 122.0781,308.5938 Q120.7656,306.9375 120.7656,303.8125 Q120.7656,300.6875 122.0781,299.0313 Q123.4063,297.375 125.9063,297.375 Q126.6094,297.375 127.25,297.5313 Q127.9063,297.6875 128.4688,297.9844 L128.4688,300.7031 Q127.8438,300.125 127.25,299.8594 Q126.6563,299.5781 126.0313,299.5781 Q124.6875,299.5781 124,300.6563 Q123.3125,301.7188 123.3125,303.8125 Q123.3125,305.9063 124,306.9844 Q124.6875,308.0469 126.0313,308.0469 Q126.6563,308.0469 127.25,307.7813 Q127.8438,307.5 128.4688,306.9219 L128.4688,309.6406 Z "/><text fill="#000000" font-family="sans-serif" font-size="12" lengthAdjust="spacingAndGlyphs" textLength="37" x="139.5" y="308.1807">Sheet</text><!--class QAManager::App::Page::Set--><rect fill="#FEFECE" filter="url(#f1b3y05bme5sas)" height="32" id="QAManager::App::Page::Set" style="stroke: #A80036; stroke-width: 1.5;" width="53" x="22.5" y="288"/><ellipse cx="37.5" cy="304" fill="#ADD1B2" rx="11" ry="11" style="stroke: #A80036; stroke-width: 1.0;"/><path d="M40.4688,309.6406 Q39.8906,309.9375 39.25,310.0781 Q38.6094,310.2344 37.9063,310.2344 Q35.4063,310.2344 34.0781,308.5938 Q32.7656,306.9375 32.7656,303.8125 Q32.7656,300.6875 34.0781,299.0313 Q35.4063,297.375 37.9063,297.375 Q38.6094,297.375 39.25,297.5313 Q39.9063,297.6875 40.4688,297.9844 L40.4688,300.7031 Q39.8438,300.125 39.25,299.8594 Q38.6563,299.5781 38.0313,299.5781 Q36.6875,299.5781 36,300.6563 Q35.3125,301.7188 35.3125,303.8125 Q35.3125,305.9063 36,306.9844 Q36.6875,308.0469 38.0313,308.0469 Q38.6563,308.0469 39.25,307.7813 Q39.8438,307.5 40.4688,306.9219 L40.4688,309.6406 Z "/><text fill="#000000" font-family="sans-serif" font-size="12" lengthAdjust="spacingAndGlyphs" textLength="21" x="51.5" y="308.1807">Set</text><!--class Gnome::Gtk3::Application--><rect fill="#FEFECE" filter="url(#f1b3y05bme5sas)" height="32" id="Gnome::Gtk3::Application" style="stroke: #A80036; stroke-width: 1.5;" width="101" x="208.5" y="43"/><ellipse cx="223.5" cy="59" fill="#ADD1B2" rx="11" ry="11" style="stroke: #A80036; stroke-width: 1.0;"/><path d="M226.4688,64.6406 Q225.8906,64.9375 225.25,65.0781 Q224.6094,65.2344 223.9063,65.2344 Q221.4063,65.2344 220.0781,63.5938 Q218.7656,61.9375 218.7656,58.8125 Q218.7656,55.6875 220.0781,54.0313 Q221.4063,52.375 223.9063,52.375 Q224.6094,52.375 225.25,52.5313 Q225.9063,52.6875 226.4688,52.9844 L226.4688,55.7031 Q225.8438,55.125 225.25,54.8594 Q224.6563,54.5781 224.0313,54.5781 Q222.6875,54.5781 222,55.6563 Q221.3125,56.7188 221.3125,58.8125 Q221.3125,60.9063 222,61.9844 Q222.6875,63.0469 224.0313,63.0469 Q224.6563,63.0469 225.25,62.7813 Q225.8438,62.5 226.4688,61.9219 L226.4688,64.6406 Z "/><text fill="#000000" font-family="sans-serif" font-size="12" lengthAdjust="spacingAndGlyphs" textLength="69" x="237.5" y="63.1807">Application</text><!--class Gnome::Gtk3::ApplicationWindow--><rect fill="#FEFECE" filter="url(#f1b3y05bme5sas)" height="32" id="Gnome::Gtk3::ApplicationWindow" style="stroke: #A80036; stroke-width: 1.5;" width="148" x="345" y="43"/><ellipse cx="360" cy="59" fill="#ADD1B2" rx="11" ry="11" style="stroke: #A80036; stroke-width: 1.0;"/><path d="M362.9688,64.6406 Q362.3906,64.9375 361.75,65.0781 Q361.1094,65.2344 360.4063,65.2344 Q357.9063,65.2344 356.5781,63.5938 Q355.2656,61.9375 355.2656,58.8125 Q355.2656,55.6875 356.5781,54.0313 Q357.9063,52.375 360.4063,52.375 Q361.1094,52.375 361.75,52.5313 Q362.4063,52.6875 362.9688,52.9844 L362.9688,55.7031 Q362.3438,55.125 361.75,54.8594 Q361.1563,54.5781 360.5313,54.5781 Q359.1875,54.5781 358.5,55.6563 Q357.8125,56.7188 357.8125,58.8125 Q357.8125,60.9063 358.5,61.9844 Q359.1875,63.0469 360.5313,63.0469 Q361.1563,63.0469 361.75,62.7813 Q362.3438,62.5 362.9688,61.9219 L362.9688,64.6406 Z "/><text fill="#000000" font-family="sans-serif" font-size="12" lengthAdjust="spacingAndGlyphs" textLength="116" x="374" y="63.1807">ApplicationWindow</text><!--class QAManager::App::Menu::File--><rect fill="#FEFECE" filter="url(#f1b3y05bme5sas)" height="32" id="QAManager::App::Menu::File" style="stroke: #A80036; stroke-width: 1.5;" width="53" x="433.5" y="288"/><ellipse cx="448.5" cy="304" fill="#ADD1B2" rx="11" ry="11" style="stroke: #A80036; stroke-width: 1.0;"/><path d="M451.4688,309.6406 Q450.8906,309.9375 450.25,310.0781 Q449.6094,310.2344 448.9063,310.2344 Q446.4063,310.2344 445.0781,308.5938 Q443.7656,306.9375 443.7656,303.8125 Q443.7656,300.6875 445.0781,299.0313 Q446.4063,297.375 448.9063,297.375 Q449.6094,297.375 450.25,297.5313 Q450.9063,297.6875 451.4688,297.9844 L451.4688,300.7031 Q450.8438,300.125 450.25,299.8594 Q449.6563,299.5781 449.0313,299.5781 Q447.6875,299.5781 447,300.6563 Q446.3125,301.7188 446.3125,303.8125 Q446.3125,305.9063 447,306.9844 Q447.6875,308.0469 449.0313,308.0469 Q449.6563,308.0469 450.25,307.7813 Q450.8438,307.5 451.4688,306.9219 L451.4688,309.6406 Z "/><text fill="#000000" font-family="sans-serif" font-size="12" lengthAdjust="spacingAndGlyphs" textLength="21" x="462.5" y="308.1807">File</text><!--class QAManager::App::Menu::Help--><rect fill="#FEFECE" filter="url(#f1b3y05bme5sas)" height="32" id="QAManager::App::Menu::Help" style="stroke: #A80036; stroke-width: 1.5;" width="60" x="338" y="288"/><ellipse cx="353" cy="304" fill="#ADD1B2" rx="11" ry="11" style="stroke: #A80036; stroke-width: 1.0;"/><path d="M355.9688,309.6406 Q355.3906,309.9375 354.75,310.0781 Q354.1094,310.2344 353.4063,310.2344 Q350.9063,310.2344 349.5781,308.5938 Q348.2656,306.9375 348.2656,303.8125 Q348.2656,300.6875 349.5781,299.0313 Q350.9063,297.375 353.4063,297.375 Q354.1094,297.375 354.75,297.5313 Q355.4063,297.6875 355.9688,297.9844 L355.9688,300.7031 Q355.3438,300.125 354.75,299.8594 Q354.1563,299.5781 353.5313,299.5781 Q352.1875,299.5781 351.5,300.6563 Q350.8125,301.7188 350.8125,303.8125 Q350.8125,305.9063 351.5,306.9844 Q352.1875,308.0469 353.5313,308.0469 Q354.1563,308.0469 354.75,307.7813 Q355.3438,307.5 355.9688,306.9219 L355.9688,309.6406 Z "/><text fill="#000000" font-family="sans-serif" font-size="12" lengthAdjust="spacingAndGlyphs" textLength="28" x="367" y="308.1807">Help</text><!--class application--><rect fill="#FEFECE" filter="url(#f1b3y05bme5sas)" height="32" id="application" style="stroke: #A80036; stroke-width: 1.5;" width="101" x="72.5" y="196"/><ellipse cx="87.5" cy="212" fill="#ADD1B2" rx="11" ry="11" style="stroke: #A80036; stroke-width: 1.0;"/><path d="M90.4688,217.6406 Q89.8906,217.9375 89.25,218.0781 Q88.6094,218.2344 87.9063,218.2344 Q85.4063,218.2344 84.0781,216.5938 Q82.7656,214.9375 82.7656,211.8125 Q82.7656,208.6875 84.0781,207.0313 Q85.4063,205.375 87.9063,205.375 Q88.6094,205.375 89.25,205.5313 Q89.9063,205.6875 90.4688,205.9844 L90.4688,208.7031 Q89.8438,208.125 89.25,207.8594 Q88.6563,207.5781 88.0313,207.5781 Q86.6875,207.5781 86,208.6563 Q85.3125,209.7188 85.3125,211.8125 Q85.3125,213.9063 86,214.9844 Q86.6875,216.0469 88.0313,216.0469 Q88.6563,216.0469 89.25,215.7813 Q89.8438,215.5 90.4688,214.9219 L90.4688,217.6406 Z "/><text fill="#000000" font-family="sans-serif" font-size="12" lengthAdjust="spacingAndGlyphs" textLength="69" x="101.5" y="216.1807">application</text><!--link application to QAManager::App::Application--><path d="M173.7344,212 C183.5668,212 193.3993,212 203.2318,212 " fill="none" id="application-QAManager::App::Application" style="stroke: #A80036; stroke-width: 1.0;"/><polygon fill="#A80036" points="208.3735,212,199.3735,208,203.3735,212,199.3735,216,208.3735,212" style="stroke: #A80036; stroke-width: 1.0;"/><!--link QAManager::App::Application to QAManager::App::ApplicationWindow--><path d="M309.625,212 C319.5696,212 329.5142,212 339.4588,212 " fill="none" id="QAManager::App::Application-QAManager::App::ApplicationWindow" style="stroke: #A80036; stroke-width: 1.0;"/><polygon fill="#A80036" points="344.6592,212,335.6592,208,339.6592,212,335.6592,216,344.6592,212" style="stroke: #A80036; stroke-width: 1.0;"/><!--link QAManager::App::Application to QAManager::App::Page::Category--><path d="M259,228.0252 C259,243.1037 259,265.7931 259,282.4514 " fill="none" id="QAManager::App::Application-QAManager::App::Page::Category" style="stroke: #A80036; stroke-width: 1.0;"/><polygon fill="#A80036" points="259,287.8498,263,278.8498,259,282.8498,255,278.8498,259,287.8498" style="stroke: #A80036; stroke-width: 1.0;"/><!--link QAManager::App::Application to QAManager::App::Page::Sheet--><path d="M238.2423,228.2195 C226.1564,237.7093 210.6564,249.9593 197,261 C187.6055,268.5951 177.3416,277.0488 168.4332,284.437 " fill="none" id="QAManager::App::Application-QAManager::App::Page::Sheet" style="stroke: #A80036; stroke-width: 1.0;"/><polygon fill="#A80036" points="164.1786,287.9699,173.658,285.2976,168.0253,284.7757,168.5472,279.1429,164.1786,287.9699" style="stroke: #A80036; stroke-width: 1.0;"/><!--link QAManager::App::Application to QAManager::App::Page::Set--><path d="M215.2952,228.0731 C207.2566,230.8443 198.9069,233.6014 191,236 C147.9852,249.0488 132.1898,238.9841 93,261 C82.5966,266.8444 72.8937,275.777 65.2611,283.9893 " fill="none" id="QAManager::App::Application-QAManager::App::Page::Set" style="stroke: #A80036; stroke-width: 1.0;"/><polygon fill="#A80036" points="61.6866,287.9463,70.6879,283.9492,65.0383,284.236,64.7514,278.5865,61.6866,287.9463" style="stroke: #A80036; stroke-width: 1.0;"/><!--link Gnome::Gtk3::Application to QAManager::App::Application--><path d="M259,95.4918 C259,127.2971 259,171.9418 259,195.6705 " fill="none" id="Gnome::Gtk3::Application-QAManager::App::Application" style="stroke: #A80036; stroke-width: 1.0;"/><polygon fill="none" points="252.0001,95.0845,259,75.0845,266.0001,95.0845,252.0001,95.0845" style="stroke: #A80036; stroke-width: 1.0;"/><!--link QAManager::App::Application to QAManager::App::Menu::File--><path d="M304.1563,228.1266 C312.0765,230.8348 320.2593,233.5565 328,236 C366.7729,248.2393 380.8242,240.6089 416,261 C426.1647,266.8924 435.7179,275.6601 443.3083,283.7443 " fill="none" id="QAManager::App::Application-QAManager::App::Menu::File" style="stroke: #A80036; stroke-width: 1.0;"/><polygon fill="#A80036" points="446.871,287.6424,443.7521,278.3004,443.4979,283.9516,437.8468,283.6974,446.871,287.6424" style="stroke: #A80036; stroke-width: 1.0;"/><!--link QAManager::App::Application to QAManager::App::Menu::Help--><path d="M279.1463,228.1574 C290.8618,237.6265 305.8618,249.8765 319,261 C327.9079,268.5419 337.5904,276.9853 345.978,284.3801 " fill="none" id="QAManager::App::Application-QAManager::App::Menu::Help" style="stroke: #A80036; stroke-width: 1.0;"/><polygon fill="#A80036" points="349.9824,287.9174,345.8855,278.9611,346.2351,284.6071,340.5891,284.9567,349.9824,287.9174" style="stroke: #A80036; stroke-width: 1.0;"/><!--link Gnome::Gtk3::ApplicationWindow to QAManager::App::ApplicationWindow--><path d="M419,95.4918 C419,127.2971 419,171.9418 419,195.6705 " fill="none" id="Gnome::Gtk3::ApplicationWindow-QAManager::App::ApplicationWindow" style="stroke: #A80036; stroke-width: 1.0;"/><polygon fill="none" points="412.0001,95.0845,419,75.0845,426.0001,95.0845,412.0001,95.0845" style="stroke: #A80036; stroke-width: 1.0;"/><!--
@startuml
skinparam packageStyle rectangle
set namespaceSeparator ::
hide members

application -> QAManager::App::Application

QAManager::App::Application -> QAManager::App::ApplicationWindow
QAManager::App::Application - -> QAManager::App::Page::Category
QAManager::App::Application - -> QAManager::App::Page::Sheet
QAManager::App::Application - -> QAManager::App::Page::Set
Gnome::Gtk3::Application <|- - QAManager::App::Application

QAManager::App::Application - -> QAManager::App::Menu::File
QAManager::App::Application - -> QAManager::App::Menu::Help

Gnome::Gtk3::ApplicationWindow <|- - - QAManager::App::ApplicationWindow

@enduml

PlantUML version 1.2019.01(Sat Feb 09 16:32:04 CET 2019)
(LGPL source distribution)
Java Runtime: OpenJDK Runtime Environment
JVM: OpenJDK 64-Bit Server VM
Java Version: 1.8.0_265-b01
Operating System: Linux
OS Version: 5.7.15-100.fc31.x86_64
Default Encoding: UTF-8
Language: en
Country: null
--></g></svg>