<?xml version="1.0" encoding="UTF-8" standalone="no"?><svg xmlns="http://www.w3.org/2000/svg" xmlns:xlink="http://www.w3.org/1999/xlink" contentScriptType="application/ecmascript" contentStyleType="text/css" height="470px" preserveAspectRatio="none" style="width:565px;height:470px;" version="1.1" viewBox="0 0 565 470" width="565px" zoomAndPan="magnify"><defs><filter height="300%" id="f18li5231uto5a" width="300%" x="-1" y="-1"><feGaussianBlur result="blurOut" stdDeviation="2.0"/><feColorMatrix in="blurOut" result="blurOut2" type="matrix" values="0 0 0 0 0 0 0 0 0 0 0 0 0 0 0 0 0 0 .4 0"/><feOffset dx="4.0" dy="4.0" in="blurOut2" result="blurOut3"/><feBlend in="SourceGraphic" in2="blurOut3" mode="normal"/></filter></defs><g><!--cluster QAManager::App--><rect fill="#FFFFFF" filter="url(#f18li5231uto5a)" height="67" style="stroke: #000000; stroke-width: 1.5;" width="150" x="115.5" y="16"/><text fill="#000000" font-family="sans-serif" font-size="14" font-weight="bold" lengthAdjust="spacingAndGlyphs" textLength="134" x="123.5" y="30.9951">QAManager::App</text><!--cluster QAManager::App::Page--><rect fill="#FFFFFF" filter="url(#f18li5231uto5a)" height="67" style="stroke: #000000; stroke-width: 1.5;" width="201" x="146.5" y="108"/><text fill="#000000" font-family="sans-serif" font-size="14" font-weight="bold" lengthAdjust="spacingAndGlyphs" textLength="185" x="154.5" y="122.9951">QAManager::App::Page</text><!--cluster QAManager--><rect fill="#FFFFFF" filter="url(#f18li5231uto5a)" height="259" style="stroke: #000000; stroke-width: 1.5;" width="193" x="92.5" y="200"/><text fill="#000000" font-family="sans-serif" font-size="14" font-weight="bold" lengthAdjust="spacingAndGlyphs" textLength="91" x="143.5" y="214.9951">QAManager</text><!--cluster QAManager::Gui--><rect fill="#FFFFFF" filter="url(#f18li5231uto5a)" height="67" style="stroke: #000000; stroke-width: 1.5;" width="154" x="360.5" y="108"/><text fill="#000000" font-family="sans-serif" font-size="14" font-weight="bold" lengthAdjust="spacingAndGlyphs" textLength="129" x="373" y="122.9951">QAManager::Gui</text><!--cluster QAManager::Gui::Part--><rect fill="#FFFFFF" filter="url(#f18li5231uto5a)" height="67" style="stroke: #000000; stroke-width: 1.5;" width="189" x="365.5" y="200"/><text fill="#000000" font-family="sans-serif" font-size="14" font-weight="bold" lengthAdjust="spacingAndGlyphs" textLength="173" x="373.5" y="214.9951">QAManager::Gui::Part</text><!--cluster Gnome::Gtk3--><rect fill="#FFFFFF" filter="url(#f18li5231uto5a)" height="67" style="stroke: #000000; stroke-width: 1.5;" width="236" x="273.5" y="16"/><text fill="#000000" font-family="sans-serif" font-size="14" font-weight="bold" lengthAdjust="spacingAndGlyphs" textLength="105" x="339" y="30.9951">Gnome::Gtk3</text><!--class QAManager::App::Application--><rect fill="#FEFECE" filter="url(#f18li5231uto5a)" height="32" id="QAManager::App::Application" style="stroke: #A80036; stroke-width: 1.5;" width="101" x="144" y="43"/><ellipse cx="159" cy="59" fill="#ADD1B2" rx="11" ry="11" style="stroke: #A80036; stroke-width: 1.0;"/><path d="M161.9688,64.6406 Q161.3906,64.9375 160.75,65.0781 Q160.1094,65.2344 159.4063,65.2344 Q156.9063,65.2344 155.5781,63.5938 Q154.2656,61.9375 154.2656,58.8125 Q154.2656,55.6875 155.5781,54.0313 Q156.9063,52.375 159.4063,52.375 Q160.1094,52.375 160.75,52.5313 Q161.4063,52.6875 161.9688,52.9844 L161.9688,55.7031 Q161.3438,55.125 160.75,54.8594 Q160.1563,54.5781 159.5313,54.5781 Q158.1875,54.5781 157.5,55.6563 Q156.8125,56.7188 156.8125,58.8125 Q156.8125,60.9063 157.5,61.9844 Q158.1875,63.0469 159.5313,63.0469 Q160.1563,63.0469 160.75,62.7813 Q161.3438,62.5 161.9688,61.9219 L161.9688,64.6406 Z "/><text fill="#000000" font-family="sans-serif" font-size="12" lengthAdjust="spacingAndGlyphs" textLength="69" x="173" y="63.1807">Application</text><!--class QAManager::App::Page::Set--><rect fill="#FEFECE" filter="url(#f18li5231uto5a)" height="32" id="QAManager::App::Page::Set" style="stroke: #A80036; stroke-width: 1.5;" width="53" x="281" y="135"/><ellipse cx="296" cy="151" fill="#ADD1B2" rx="11" ry="11" style="stroke: #A80036; stroke-width: 1.0;"/><path d="M298.9688,156.6406 Q298.3906,156.9375 297.75,157.0781 Q297.1094,157.2344 296.4063,157.2344 Q293.9063,157.2344 292.5781,155.5938 Q291.2656,153.9375 291.2656,150.8125 Q291.2656,147.6875 292.5781,146.0313 Q293.9063,144.375 296.4063,144.375 Q297.1094,144.375 297.75,144.5313 Q298.4063,144.6875 298.9688,144.9844 L298.9688,147.7031 Q298.3438,147.125 297.75,146.8594 Q297.1563,146.5781 296.5313,146.5781 Q295.1875,146.5781 294.5,147.6563 Q293.8125,148.7188 293.8125,150.8125 Q293.8125,152.9063 294.5,153.9844 Q295.1875,155.0469 296.5313,155.0469 Q297.1563,155.0469 297.75,154.7813 Q298.3438,154.5 298.9688,153.9219 L298.9688,156.6406 Z "/><text fill="#000000" font-family="sans-serif" font-size="12" lengthAdjust="spacingAndGlyphs" textLength="21" x="310" y="155.1807">Set</text><!--class QAManager::Category--><rect fill="#FEFECE" filter="url(#f18li5231uto5a)" height="32" id="QAManager::Category" style="stroke: #A80036; stroke-width: 1.5;" width="88" x="100.5" y="227"/><ellipse cx="115.5" cy="243" fill="#ADD1B2" rx="11" ry="11" style="stroke: #A80036; stroke-width: 1.0;"/><path d="M118.4688,248.6406 Q117.8906,248.9375 117.25,249.0781 Q116.6094,249.2344 115.9063,249.2344 Q113.4063,249.2344 112.0781,247.5938 Q110.7656,245.9375 110.7656,242.8125 Q110.7656,239.6875 112.0781,238.0313 Q113.4063,236.375 115.9063,236.375 Q116.6094,236.375 117.25,236.5313 Q117.9063,236.6875 118.4688,236.9844 L118.4688,239.7031 Q117.8438,239.125 117.25,238.8594 Q116.6563,238.5781 116.0313,238.5781 Q114.6875,238.5781 114,239.6563 Q113.3125,240.7188 113.3125,242.8125 Q113.3125,244.9063 114,245.9844 Q114.6875,247.0469 116.0313,247.0469 Q116.6563,247.0469 117.25,246.7813 Q117.8438,246.5 118.4688,245.9219 L118.4688,248.6406 Z "/><text fill="#000000" font-family="sans-serif" font-size="12" lengthAdjust="spacingAndGlyphs" textLength="56" x="129.5" y="247.1807">Category</text><!--class QAManager::Set--><rect fill="#FEFECE" filter="url(#f18li5231uto5a)" height="32" id="QAManager::Set" style="stroke: #A80036; stroke-width: 1.5;" width="53" x="224" y="227"/><ellipse cx="239" cy="243" fill="#ADD1B2" rx="11" ry="11" style="stroke: #A80036; stroke-width: 1.0;"/><path d="M241.9688,248.6406 Q241.3906,248.9375 240.75,249.0781 Q240.1094,249.2344 239.4063,249.2344 Q236.9063,249.2344 235.5781,247.5938 Q234.2656,245.9375 234.2656,242.8125 Q234.2656,239.6875 235.5781,238.0313 Q236.9063,236.375 239.4063,236.375 Q240.1094,236.375 240.75,236.5313 Q241.4063,236.6875 241.9688,236.9844 L241.9688,239.7031 Q241.3438,239.125 240.75,238.8594 Q240.1563,238.5781 239.5313,238.5781 Q238.1875,238.5781 237.5,239.6563 Q236.8125,240.7188 236.8125,242.8125 Q236.8125,244.9063 237.5,245.9844 Q238.1875,247.0469 239.5313,247.0469 Q240.1563,247.0469 240.75,246.7813 Q241.3438,246.5 241.9688,245.9219 L241.9688,248.6406 Z "/><text fill="#000000" font-family="sans-serif" font-size="12" lengthAdjust="spacingAndGlyphs" textLength="21" x="253" y="247.1807">Set</text><!--class QAManager::KV--><rect fill="#FEFECE" filter="url(#f18li5231uto5a)" height="32" id="QAManager::KV" style="stroke: #A80036; stroke-width: 1.5;" width="47" x="219" y="323"/><ellipse cx="234" cy="339" fill="#ADD1B2" rx="11" ry="11" style="stroke: #A80036; stroke-width: 1.0;"/><path d="M236.9688,344.6406 Q236.3906,344.9375 235.75,345.0781 Q235.1094,345.2344 234.4063,345.2344 Q231.9063,345.2344 230.5781,343.5938 Q229.2656,341.9375 229.2656,338.8125 Q229.2656,335.6875 230.5781,334.0313 Q231.9063,332.375 234.4063,332.375 Q235.1094,332.375 235.75,332.5313 Q236.4063,332.6875 236.9688,332.9844 L236.9688,335.7031 Q236.3438,335.125 235.75,334.8594 Q235.1563,334.5781 234.5313,334.5781 Q233.1875,334.5781 232.5,335.6563 Q231.8125,336.7188 231.8125,338.8125 Q231.8125,340.9063 232.5,341.9844 Q233.1875,343.0469 234.5313,343.0469 Q235.1563,343.0469 235.75,342.7813 Q236.3438,342.5 236.9688,341.9219 L236.9688,344.6406 Z "/><text fill="#000000" font-family="sans-serif" font-size="12" lengthAdjust="spacingAndGlyphs" textLength="15" x="248" y="343.1807">KV</text><!--class QAManager::QATypes--><rect fill="#FEFECE" filter="url(#f18li5231uto5a)" height="32" id="QAManager::QATypes" style="stroke: #A80036; stroke-width: 1.5;" width="85" x="192" y="419"/><ellipse cx="207" cy="435" fill="#ADD1B2" rx="11" ry="11" style="stroke: #A80036; stroke-width: 1.0;"/><path d="M209.9688,440.6406 Q209.3906,440.9375 208.75,441.0781 Q208.1094,441.2344 207.4063,441.2344 Q204.9063,441.2344 203.5781,439.5938 Q202.2656,437.9375 202.2656,434.8125 Q202.2656,431.6875 203.5781,430.0313 Q204.9063,428.375 207.4063,428.375 Q208.1094,428.375 208.75,428.5313 Q209.4063,428.6875 209.9688,428.9844 L209.9688,431.7031 Q209.3438,431.125 208.75,430.8594 Q208.1563,430.5781 207.5313,430.5781 Q206.1875,430.5781 205.5,431.6563 Q204.8125,432.7188 204.8125,434.8125 Q204.8125,436.9063 205.5,437.9844 Q206.1875,439.0469 207.5313,439.0469 Q208.1563,439.0469 208.75,438.7813 Q209.3438,438.5 209.9688,437.9219 L209.9688,440.6406 Z "/><text fill="#000000" font-family="sans-serif" font-size="12" lengthAdjust="spacingAndGlyphs" textLength="53" x="221" y="439.1807">QATypes</text><!--class QAManager::Gui::YNMsgDialog--><rect fill="#FEFECE" filter="url(#f18li5231uto5a)" height="32" id="QAManager::Gui::YNMsgDialog" style="stroke: #A80036; stroke-width: 1.5;" width="137" x="369" y="135"/><ellipse cx="384" cy="151" fill="#ADD1B2" rx="11" ry="11" style="stroke: #A80036; stroke-width: 1.0;"/><path d="M386.9688,156.6406 Q386.3906,156.9375 385.75,157.0781 Q385.1094,157.2344 384.4063,157.2344 Q381.9063,157.2344 380.5781,155.5938 Q379.2656,153.9375 379.2656,150.8125 Q379.2656,147.6875 380.5781,146.0313 Q381.9063,144.375 384.4063,144.375 Q385.1094,144.375 385.75,144.5313 Q386.4063,144.6875 386.9688,144.9844 L386.9688,147.7031 Q386.3438,147.125 385.75,146.8594 Q385.1563,146.5781 384.5313,146.5781 Q383.1875,146.5781 382.5,147.6563 Q381.8125,148.7188 381.8125,150.8125 Q381.8125,152.9063 382.5,153.9844 Q383.1875,155.0469 384.5313,155.0469 Q385.1563,155.0469 385.75,154.7813 Q386.3438,154.5 386.9688,153.9219 L386.9688,156.6406 Z "/><text fill="#000000" font-family="sans-serif" font-size="12" lengthAdjust="spacingAndGlyphs" textLength="105" x="398" y="155.1807">DeleteMsgDialog</text><!--class QAManager::Gui::Part::Set--><rect fill="#FEFECE" filter="url(#f18li5231uto5a)" height="32" id="QAManager::Gui::Part::Set" style="stroke: #A80036; stroke-width: 1.5;" width="53" x="384" y="227"/><ellipse cx="399" cy="243" fill="#ADD1B2" rx="11" ry="11" style="stroke: #A80036; stroke-width: 1.0;"/><path d="M401.9688,248.6406 Q401.3906,248.9375 400.75,249.0781 Q400.1094,249.2344 399.4063,249.2344 Q396.9063,249.2344 395.5781,247.5938 Q394.2656,245.9375 394.2656,242.8125 Q394.2656,239.6875 395.5781,238.0313 Q396.9063,236.375 399.4063,236.375 Q400.1094,236.375 400.75,236.5313 Q401.4063,236.6875 401.9688,236.9844 L401.9688,239.7031 Q401.3438,239.125 400.75,238.8594 Q400.1563,238.5781 399.5313,238.5781 Q398.1875,238.5781 397.5,239.6563 Q396.8125,240.7188 396.8125,242.8125 Q396.8125,244.9063 397.5,245.9844 Q398.1875,247.0469 399.5313,247.0469 Q400.1563,247.0469 400.75,246.7813 Q401.3438,246.5 401.9688,245.9219 L401.9688,248.6406 Z "/><text fill="#000000" font-family="sans-serif" font-size="12" lengthAdjust="spacingAndGlyphs" textLength="21" x="413" y="247.1807">Set</text><!--class Gnome::Gtk3::Grid--><rect fill="#FEFECE" filter="url(#f18li5231uto5a)" height="32" id="Gnome::Gtk3::Grid" style="stroke: #A80036; stroke-width: 1.5;" width="57" x="282" y="43"/><ellipse cx="297" cy="59" fill="#ADD1B2" rx="11" ry="11" style="stroke: #A80036; stroke-width: 1.0;"/><path d="M299.9688,64.6406 Q299.3906,64.9375 298.75,65.0781 Q298.1094,65.2344 297.4063,65.2344 Q294.9063,65.2344 293.5781,63.5938 Q292.2656,61.9375 292.2656,58.8125 Q292.2656,55.6875 293.5781,54.0313 Q294.9063,52.375 297.4063,52.375 Q298.1094,52.375 298.75,52.5313 Q299.4063,52.6875 299.9688,52.9844 L299.9688,55.7031 Q299.3438,55.125 298.75,54.8594 Q298.1563,54.5781 297.5313,54.5781 Q296.1875,54.5781 295.5,55.6563 Q294.8125,56.7188 294.8125,58.8125 Q294.8125,60.9063 295.5,61.9844 Q296.1875,63.0469 297.5313,63.0469 Q298.1563,63.0469 298.75,62.7813 Q299.3438,62.5 299.9688,61.9219 L299.9688,64.6406 Z "/><text fill="#000000" font-family="sans-serif" font-size="12" lengthAdjust="spacingAndGlyphs" textLength="25" x="311" y="63.1807">Grid</text><!--class Gnome::Gtk3::MessageDialog--><rect fill="#FEFECE" filter="url(#f18li5231uto5a)" height="32" id="Gnome::Gtk3::MessageDialog" style="stroke: #A80036; stroke-width: 1.5;" width="127" x="374" y="43"/><ellipse cx="389" cy="59" fill="#ADD1B2" rx="11" ry="11" style="stroke: #A80036; stroke-width: 1.0;"/><path d="M391.9688,64.6406 Q391.3906,64.9375 390.75,65.0781 Q390.1094,65.2344 389.4063,65.2344 Q386.9063,65.2344 385.5781,63.5938 Q384.2656,61.9375 384.2656,58.8125 Q384.2656,55.6875 385.5781,54.0313 Q386.9063,52.375 389.4063,52.375 Q390.1094,52.375 390.75,52.5313 Q391.4063,52.6875 391.9688,52.9844 L391.9688,55.7031 Q391.3438,55.125 390.75,54.8594 Q390.1563,54.5781 389.5313,54.5781 Q388.1875,54.5781 387.5,55.6563 Q386.8125,56.7188 386.8125,58.8125 Q386.8125,60.9063 387.5,61.9844 Q388.1875,63.0469 389.5313,63.0469 Q390.1563,63.0469 390.75,62.7813 Q391.3438,62.5 391.9688,61.9219 L391.9688,64.6406 Z "/><text fill="#000000" font-family="sans-serif" font-size="12" lengthAdjust="spacingAndGlyphs" textLength="95" x="403" y="63.1807">MessageDialog</text><!--class application--><rect fill="#FEFECE" filter="url(#f18li5231uto5a)" height="32" id="application" style="stroke: #A80036; stroke-width: 1.5;" width="101" x="6" y="43"/><ellipse cx="21" cy="59" fill="#ADD1B2" rx="11" ry="11" style="stroke: #A80036; stroke-width: 1.0;"/><path d="M23.9688,64.6406 Q23.3906,64.9375 22.75,65.0781 Q22.1094,65.2344 21.4063,65.2344 Q18.9063,65.2344 17.5781,63.5938 Q16.2656,61.9375 16.2656,58.8125 Q16.2656,55.6875 17.5781,54.0313 Q18.9063,52.375 21.4063,52.375 Q22.1094,52.375 22.75,52.5313 Q23.4063,52.6875 23.9688,52.9844 L23.9688,55.7031 Q23.3438,55.125 22.75,54.8594 Q22.1563,54.5781 21.5313,54.5781 Q20.1875,54.5781 19.5,55.6563 Q18.8125,56.7188 18.8125,58.8125 Q18.8125,60.9063 19.5,61.9844 Q20.1875,63.0469 21.5313,63.0469 Q22.1563,63.0469 22.75,62.7813 Q23.3438,62.5 23.9688,61.9219 L23.9688,64.6406 Z "/><text fill="#000000" font-family="sans-serif" font-size="12" lengthAdjust="spacingAndGlyphs" textLength="69" x="35" y="63.1807">application</text><path d="M331,319 L331,359.4814 A0,0 0 0 0 331,359.4814 L490,359.4814 A0,0 0 0 0 490,359.4814 L490,329 L480,319 L414.5,319 L410.5,259.2851 L406.5,319 L331,319 A0,0 0 0 0 331,319 " fill="#FBFB77" filter="url(#f18li5231uto5a)" style="stroke: #A80036; stroke-width: 1.0;"/><path d="M480,319 L480,329 L490,329 L480,319 " fill="#FBFB77" style="stroke: #A80036; stroke-width: 1.0;"/><text fill="#000000" font-family="sans-serif" font-size="13" lengthAdjust="spacingAndGlyphs" textLength="108" x="337" y="336.1494">See structure for</text><text fill="#000000" font-family="sans-serif" font-size="13" lengthAdjust="spacingAndGlyphs" textLength="134" x="341" y="351.3901">'the set demo dialog'</text><!--link application to QAManager::App::Application--><path d="M107.1719,59 C117.6277,59 128.0836,59 138.5394,59 " fill="none" id="application-QAManager::App::Application" style="stroke: #A80036; stroke-width: 1.0;"/><polygon fill="#A80036" points="143.6723,59,134.6723,55,138.6723,59,134.6723,63,143.6723,59" style="stroke: #A80036; stroke-width: 1.0;"/><!--link QAManager::App::Application to QAManager::App::Page::Set--><path d="M214.1831,75.0252 C233.5087,90.7593 263.0129,114.7804 283.6581,131.5889 " fill="none" id="QAManager::App::Application-QAManager::App::Page::Set" style="stroke: #A80036; stroke-width: 1.0;"/><polygon fill="#A80036" points="287.6633,134.8498,283.2094,126.0655,283.7859,131.693,278.1585,132.2694,287.6633,134.8498" style="stroke: #A80036; stroke-width: 1.0;"/><!--link QAManager::App::Page::Set to QAManager::Category--><path d="M280.7611,162.6035 C260.0585,171.9116 230.8963,185.7373 206.5,200 C194.2205,207.1789 181.2033,216.0041 170.2835,223.7874 " fill="none" id="QAManager::App::Page::Set-QAManager::Category" style="stroke: #A80036; stroke-width: 1.0;"/><polygon fill="#A80036" points="166.0524,226.8256,175.696,224.8252,170.1138,223.9092,171.0298,218.327,166.0524,226.8256" style="stroke: #A80036; stroke-width: 1.0;"/><!--link QAManager::App::Page::Set to QAManager::Set--><path d="M297.5714,167.0252 C288.0668,182.3659 273.6813,205.5846 263.3157,222.3149 " fill="none" id="QAManager::App::Page::Set-QAManager::Set" style="stroke: #A80036; stroke-width: 1.0;"/><polygon fill="#A80036" points="260.5061,226.8498,268.6465,221.306,263.1395,222.5995,261.846,217.0925,260.5061,226.8498" style="stroke: #A80036; stroke-width: 1.0;"/><!--link QAManager::App::Page::Set to QAManager::KV--><path d="M308.2341,167.3727 C308.7039,190.4135 307.4951,233.3505 294.5,267 C287.0495,286.2923 273.1321,305.133 261.5693,318.6996 " fill="none" id="QAManager::App::Page::Set-QAManager::KV" style="stroke: #A80036; stroke-width: 1.0;"/><polygon fill="#A80036" points="258.0662,322.7353,266.9866,318.5608,261.3438,318.9594,260.9452,313.3166,258.0662,322.7353" style="stroke: #A80036; stroke-width: 1.0;"/><!--link QAManager::App::Page::Set to QAManager::Gui::DeleteMsgDialog--><path d="M334.1602,151 C344.0144,151 353.8686,151 363.7228,151 " fill="none" id="QAManager::App::Page::Set-QAManager::Gui::DeleteMsgDialog" style="stroke: #A80036; stroke-width: 1.0;"/><polygon fill="#A80036" points="368.8759,151,359.8759,147,363.8759,151,359.8759,155,368.8759,151" style="stroke: #A80036; stroke-width: 1.0;"/><!--link QAManager::App::Page::Set to QAManager::Gui::Part::Set--><path d="M325.4412,167.0252 C342.9098,182.6281 369.5023,206.3807 388.2958,223.1672 " fill="none" id="QAManager::App::Page::Set-QAManager::Gui::Part::Set" style="stroke: #A80036; stroke-width: 1.0;"/><polygon fill="#A80036" points="392.4188,226.8498,388.3713,217.8711,388.6898,223.5189,383.0419,223.8375,392.4188,226.8498" style="stroke: #A80036; stroke-width: 1.0;"/><!--link Gnome::Gtk3::Grid to QAManager::App::Page::Set--><path d="M309.3129,95.4048 C308.867,109.0788 308.3825,123.9368 308.0266,134.8498 " fill="none" id="Gnome::Gtk3::Grid-QAManager::App::Page::Set" style="stroke: #A80036; stroke-width: 1.0;"/><polygon fill="none" points="302.3292,94.7864,309.9774,75.0252,316.3218,95.2427,302.3292,94.7864" style="stroke: #A80036; stroke-width: 1.0;"/><!--link QAManager::Category to QAManager::Set--><path d="M188.8047,243 C198.7923,243 208.7799,243 218.7674,243 " fill="none" id="QAManager::Category-QAManager::Set" style="stroke: #A80036; stroke-width: 1.0;"/><polygon fill="#A80036" points="223.9903,243,214.9903,239,218.9903,243,214.9903,247,223.9903,243" style="stroke: #A80036; stroke-width: 1.0;"/><!--link QAManager::Category to QAManager::KV--><path d="M161.1244,259.2851 C177.9798,275.7965 204.0865,301.3704 222.1646,319.0796 " fill="none" id="QAManager::Category-QAManager::KV" style="stroke: #A80036; stroke-width: 1.0;"/><polygon fill="#A80036" points="226.1212,322.9554,222.4911,313.7999,222.5494,319.4565,216.8929,319.5148,226.1212,322.9554" style="stroke: #A80036; stroke-width: 1.0;"/><!--link QAManager::Set to QAManager::KV--><path d="M249.1429,259.2851 C247.8016,275.3803 245.7428,300.0867 244.2729,317.7256 " fill="none" id="QAManager::Set-QAManager::KV" style="stroke: #A80036; stroke-width: 1.0;"/><polygon fill="#A80036" points="243.837,322.9554,248.5707,314.3187,244.2523,317.9727,240.5983,313.6543,243.837,322.9554" style="stroke: #A80036; stroke-width: 1.0;"/><!--link QAManager::KV to QAManager::QATypes--><path d="M241.1429,355.2851 C239.8016,371.3803 237.7428,396.0867 236.2729,413.7256 " fill="none" id="QAManager::KV-QAManager::QATypes" style="stroke: #A80036; stroke-width: 1.0;"/><polygon fill="#A80036" points="235.837,418.9554,240.5707,410.3187,236.2523,413.9727,232.5983,409.6543,235.837,418.9554" style="stroke: #A80036; stroke-width: 1.0;"/><!--link Gnome::Gtk3::MessageDialog to QAManager::Gui::YNMsgDialog--><path d="M437.5,95.4048 C437.5,109.0788 437.5,123.9368 437.5,134.8498 " fill="none" id="Gnome::Gtk3::MessageDialog-QAManager::Gui::YNMsgDialog" style="stroke: #A80036; stroke-width: 1.0;"/><polygon fill="none" points="430.5001,95.0252,437.5,75.0252,444.5001,95.0251,430.5001,95.0252" style="stroke: #A80036; stroke-width: 1.0;"/><!--
@startuml
skinparam packageStyle rectangle
set namespaceSeparator ::
hide members


application -> QAManager::App::Application

QAManager::App::Application - -> QAManager::App::Page::Set



QAManager::App::Page::Set - -> QAManager::Category
QAManager::App::Page::Set - -> QAManager::Set
QAManager::App::Page::Set - -> QAManager::KV
QAManager::App::Page::Set -> QAManager::Gui::YNMsgDialog
QAManager::App::Page::Set - -> QAManager::Gui::Part::Set
note "See structure for\n 'the set demo dialog'" as N1
QAManager::Gui::Part::Set .. N1

Gnome::Gtk3::Grid <|- - QAManager::App::Page::Set


QAManager::Category -> QAManager::Set
QAManager::Category - -> QAManager::KV



QAManager::Set - -> QAManager::KV

QAManager::KV - -> QAManager::QATypes


Gnome::Gtk3::MessageDialog <|- - QAManager::Gui::YNMsgDialog




@enduml

PlantUML version 1.2019.01(Sat Feb 09 16:32:04 CET 2019)
(LGPL source distribution)
Java Runtime: OpenJDK Runtime Environment
JVM: OpenJDK 64-Bit Server VM
Java Version: 1.8.0_265-b01
Operating System: Linux
OS Version: 5.8.6-101.fc31.x86_64
Default Encoding: UTF-8
Language: en
Country: null
--></g></svg>
